<svg width="50" height="51" viewBox="0 0 50 51" fill="none" xmlns="http://www.w3.org/2000/svg">
<circle cx="25" cy="25.1909" r="24.5" transform="rotate(180 25 25.1909)" fill="white" stroke="#4361EE"/>
<path d="M35 26.1909C35.5523 26.1909 36 25.7432 36 25.1909C36 24.6386 35.5523 24.1909 35 24.1909L35 26.1909ZM14.2929 24.4838C13.9024 24.8743 13.9024 25.5075 14.2929 25.898L20.6569 32.262C21.0474 32.6525 21.6805 32.6525 22.0711 32.262C22.4616 31.8715 22.4616 31.2383 22.0711 30.8478L16.4142 25.1909L22.0711 19.5341C22.4616 19.1435 22.4616 18.5104 22.0711 18.1199C21.6805 17.7293 21.0474 17.7293 20.6569 18.1199L14.2929 24.4838ZM35 24.1909L15 24.1909L15 26.1909L35 26.1909L35 24.1909Z" fill="#4361EE"/>
</svg>
