<svg width="50" height="51" viewBox="0 0 50 51" fill="none" xmlns="http://www.w3.org/2000/svg">
<circle cx="25" cy="25.1909" r="24.5" fill="white" stroke="#4361EE"/>
<path d="M15 24.1909C14.4477 24.1909 14 24.6386 14 25.1909C14 25.7432 14.4477 26.1909 15 26.1909V24.1909ZM35.7071 25.898C36.0976 25.5075 36.0976 24.8743 35.7071 24.4838L29.3431 18.1199C28.9526 17.7293 28.3195 17.7293 27.9289 18.1199C27.5384 18.5104 27.5384 19.1435 27.9289 19.5341L33.5858 25.1909L27.9289 30.8478C27.5384 31.2383 27.5384 31.8715 27.9289 32.262C28.3195 32.6525 28.9526 32.6525 29.3431 32.262L35.7071 25.898ZM15 26.1909H35V24.1909H15V26.1909Z" fill="#4361EE"/>
</svg>
