<svg width="50" height="51" viewBox="0 0 50 51" fill="none" xmlns="http://www.w3.org/2000/svg">
<circle cx="25" cy="25.0596" r="24.5" fill="white" stroke="#3A0CA3"/>
<path d="M15 24.0596C14.4477 24.0596 14 24.5073 14 25.0596C14 25.6119 14.4477 26.0596 15 26.0596V24.0596ZM35.7071 25.7667C36.0976 25.3762 36.0976 24.743 35.7071 24.3525L29.3431 17.9885C28.9526 17.598 28.3195 17.598 27.9289 17.9885C27.5384 18.379 27.5384 19.0122 27.9289 19.4027L33.5858 25.0596L27.9289 30.7164C27.5384 31.1069 27.5384 31.7401 27.9289 32.1306C28.3195 32.5212 28.9526 32.5212 29.3431 32.1306L35.7071 25.7667ZM15 26.0596H35V24.0596H15V26.0596Z" fill="#3A0CA3"/>
</svg>
