<svg width="98" height="20" viewBox="0 0 98 20" fill="none" xmlns="http://www.w3.org/2000/svg">
<path d="M9.53582 19.0716C4.27949 19.0716 0 14.7921 0 9.53582C0 4.27949 4.27949 0 9.53582 0C14.7921 0 19.0716 4.27949 19.0716 9.53582C19.0716 14.7921 14.7921 19.0716 9.53582 19.0716ZM9.53582 1.39549C5.04235 1.39549 1.39549 5.05166 1.39549 9.53582C1.39549 14.02 5.04235 17.6761 9.53582 17.6761C14.0293 17.6761 17.6761 14.02 17.6761 9.53582C17.6761 5.05166 14.0293 1.39549 9.53582 1.39549Z" fill="white"/>
<path d="M19.3046 20.0019C19.1278 20.0019 18.9511 19.9367 18.8115 19.7972L16.9509 17.9365C16.6811 17.6667 16.6811 17.2202 16.9509 16.9504C17.2207 16.6806 17.6672 16.6806 17.937 16.9504L19.7977 18.811C20.0675 19.0808 20.0675 19.5274 19.7977 19.7972C19.6581 19.9367 19.4814 20.0019 19.3046 20.0019Z" fill="white"/>
<path d="M41.9964 15.6129C41.2497 15.6129 40.5777 15.4849 39.9804 15.2289C39.383 14.9622 38.9137 14.5889 38.5724 14.1089C38.231 13.6289 38.0604 13.0689 38.0604 12.4289H40.0124C40.055 12.9089 40.2417 13.3036 40.5724 13.6129C40.9137 13.9222 41.3884 14.0769 41.9964 14.0769C42.6257 14.0769 43.1164 13.9276 43.4684 13.6289C43.8204 13.3196 43.9964 12.9249 43.9964 12.4449C43.9964 12.0716 43.8844 11.7676 43.6604 11.5329C43.447 11.2982 43.175 11.1169 42.8444 10.9889C42.5244 10.8609 42.0764 10.7222 41.5004 10.5729C40.775 10.3809 40.183 10.1889 39.7244 9.99692C39.2764 9.79425 38.8924 9.48492 38.5724 9.06892C38.2524 8.65292 38.0924 8.09825 38.0924 7.40491C38.0924 6.76491 38.2524 6.20492 38.5724 5.72492C38.8924 5.24492 39.3404 4.87692 39.9164 4.62092C40.4924 4.36491 41.159 4.23691 41.9164 4.23691C42.9937 4.23691 43.8737 4.50891 44.5564 5.05291C45.2497 5.58625 45.6337 6.32225 45.7084 7.26091H43.6924C43.6604 6.85558 43.4684 6.50891 43.1164 6.22091C42.7644 5.93291 42.3004 5.78891 41.7244 5.78891C41.2017 5.78891 40.775 5.92225 40.4444 6.18892C40.1137 6.45558 39.9484 6.83958 39.9484 7.34091C39.9484 7.68225 40.0497 7.96492 40.2524 8.18892C40.4657 8.40225 40.7324 8.57292 41.0524 8.70092C41.3724 8.82892 41.8097 8.96758 42.3644 9.11692C43.1004 9.31958 43.6977 9.52225 44.1564 9.72492C44.6257 9.92758 45.0204 10.2422 45.3404 10.6689C45.671 11.0849 45.8364 11.6449 45.8364 12.3489C45.8364 12.9142 45.6817 13.4476 45.3724 13.9489C45.0737 14.4502 44.631 14.8556 44.0444 15.1649C43.4684 15.4636 42.7857 15.6129 41.9964 15.6129ZM56.0686 10.8769C56.0686 11.2076 56.0473 11.5062 56.0046 11.7729H49.2686C49.3219 12.4769 49.5833 13.0422 50.0526 13.4689C50.5219 13.8956 51.0979 14.1089 51.7806 14.1089C52.7619 14.1089 53.4553 13.6982 53.8606 12.8769H55.8286C55.5619 13.6876 55.0766 14.3542 54.3726 14.8769C53.6793 15.3889 52.8153 15.6449 51.7806 15.6449C50.9379 15.6449 50.1806 15.4582 49.5086 15.0849C48.8473 14.7009 48.3246 14.1676 47.9406 13.4849C47.5673 12.7916 47.3806 11.9916 47.3806 11.0849C47.3806 10.1782 47.5619 9.38358 47.9246 8.70092C48.2979 8.00758 48.8153 7.47425 49.4766 7.10091C50.1486 6.72758 50.9166 6.54092 51.7806 6.54092C52.6126 6.54092 53.3539 6.72225 54.0046 7.08492C54.6553 7.44758 55.1619 7.95958 55.5246 8.62092C55.8873 9.27158 56.0686 10.0236 56.0686 10.8769ZM54.1646 10.3009C54.1539 9.62892 53.9139 9.09025 53.4446 8.68492C52.9753 8.27958 52.3939 8.07692 51.7006 8.07692C51.0713 8.07692 50.5326 8.27958 50.0846 8.68492C49.6366 9.07958 49.3699 9.61825 49.2846 10.3009H54.1646ZM57.2556 11.0529C57.2556 10.1676 57.4369 9.38358 57.7996 8.70092C58.1729 8.01825 58.6743 7.49025 59.3036 7.11691C59.9436 6.73292 60.6476 6.54092 61.4156 6.54092C62.1089 6.54092 62.7116 6.67958 63.2236 6.95691C63.7463 7.22358 64.1623 7.55958 64.4716 7.96492V6.68492H66.3116V15.5009H64.4716V14.1889C64.1623 14.6049 63.7409 14.9516 63.2076 15.2289C62.6743 15.5062 62.0663 15.6449 61.3836 15.6449C60.6263 15.6449 59.9329 15.4529 59.3036 15.0689C58.6743 14.6742 58.1729 14.1302 57.7996 13.4369C57.4369 12.7329 57.2556 11.9382 57.2556 11.0529ZM64.4716 11.0849C64.4716 10.4769 64.3436 9.94892 64.0876 9.50092C63.8423 9.05292 63.5169 8.71158 63.1116 8.47692C62.7063 8.24225 62.2689 8.12492 61.7996 8.12492C61.3303 8.12492 60.8929 8.24225 60.4876 8.47692C60.0823 8.70092 59.7516 9.03692 59.4956 9.48492C59.2503 9.92225 59.1276 10.4449 59.1276 11.0529C59.1276 11.6609 59.2503 12.1942 59.4956 12.6529C59.7516 13.1116 60.0823 13.4636 60.4876 13.7089C60.9036 13.9436 61.3409 14.0609 61.7996 14.0609C62.2689 14.0609 62.7063 13.9436 63.1116 13.7089C63.5169 13.4742 63.8423 13.1329 64.0876 12.6849C64.3436 12.2262 64.4716 11.6929 64.4716 11.0849ZM70.5314 7.96492C70.798 7.51692 71.15 7.17025 71.5874 6.92492C72.0354 6.66892 72.5634 6.54092 73.1714 6.54092V8.42892H72.7074C71.9927 8.42892 71.4487 8.61025 71.0754 8.97292C70.7127 9.33558 70.5314 9.96492 70.5314 10.8609V15.5009H68.7074V6.68492H70.5314V7.96492ZM74.24 11.0849C74.24 10.1782 74.4213 9.38358 74.784 8.70092C75.1573 8.00758 75.6693 7.47425 76.32 7.10091C76.9707 6.72758 77.7173 6.54092 78.56 6.54092C79.6267 6.54092 80.5067 6.79692 81.2 7.30892C81.904 7.81025 82.3787 8.53025 82.624 9.46892H80.656C80.496 9.03158 80.24 8.69025 79.888 8.44492C79.536 8.19958 79.0933 8.07692 78.56 8.07692C77.8133 8.07692 77.216 8.34358 76.768 8.87691C76.3307 9.39958 76.112 10.1356 76.112 11.0849C76.112 12.0342 76.3307 12.7756 76.768 13.3089C77.216 13.8422 77.8133 14.1089 78.56 14.1089C79.616 14.1089 80.3147 13.6449 80.656 12.7169H82.624C82.368 13.6129 81.888 14.3276 81.184 14.8609C80.48 15.3836 79.6053 15.6449 78.56 15.6449C77.7173 15.6449 76.9707 15.4582 76.32 15.0849C75.6693 14.7009 75.1573 14.1676 74.784 13.4849C74.4213 12.7916 74.24 11.9916 74.24 11.0849ZM89.0017 6.54092C89.6737 6.54092 90.2711 6.68492 90.7937 6.97291C91.3271 7.26091 91.7431 7.68758 92.0417 8.25292C92.3511 8.81825 92.5057 9.50092 92.5057 10.3009V15.5009H90.6977V10.5729C90.6977 9.78358 90.5004 9.18092 90.1057 8.76491C89.7111 8.33825 89.1724 8.12492 88.4897 8.12492C87.8071 8.12492 87.2631 8.33825 86.8577 8.76491C86.4631 9.18092 86.2657 9.78358 86.2657 10.5729V15.5009H84.4417V3.66092H86.2657V7.70892C86.5751 7.33558 86.9644 7.04758 87.4337 6.84492C87.9137 6.64225 88.4364 6.54092 89.0017 6.54092Z" fill="white"/>
</svg>
