<svg width="151" height="151" viewBox="0 0 151 151" fill="none" xmlns="http://www.w3.org/2000/svg">
<g filter="url(#filter0_d_181_2430)">
<rect x="26.3334" y="20.0596" width="90" height="90" rx="45" fill="#4361EE" shape-rendering="crispEdges"/>
<path d="M89.9666 77.0644L83.2096 70.3074L78.0123 68.1602C79.7429 65.6992 80.67 62.7633 80.6666 59.7548C80.6666 51.6675 74.0872 45.0881 66 45.0881C57.9128 45.0881 51.3334 51.6675 51.3334 59.7548C51.3334 67.842 57.9128 74.4214 66 74.4214C69.0347 74.4249 71.9949 73.4817 74.4682 71.7233L76.6099 76.9066L83.3666 83.664C83.8 84.0973 84.3144 84.4411 84.8806 84.6756C85.4468 84.9102 86.0536 85.0309 86.6665 85.0309C87.2793 85.0309 87.8862 84.9103 88.4524 84.6757C89.0186 84.4412 89.5331 84.0975 89.9664 83.6642C90.3998 83.2308 90.7435 82.7164 90.9781 82.1502C91.2126 81.584 91.3334 80.9772 91.3334 80.3643C91.3334 79.7515 91.2127 79.1446 90.9782 78.5784C90.7437 78.0122 90.4 77.4978 89.9666 77.0644ZM54 59.7548C54 53.1381 59.3834 47.7548 66 47.7548C72.6167 47.7548 78 53.1381 78 59.7548C78 66.3714 72.6167 71.7547 66 71.7547C59.3834 71.7547 54 66.3714 54 59.7548ZM88.0809 81.7784C87.7055 82.1529 87.1969 82.3632 86.6666 82.3632C86.1364 82.3632 85.6278 82.1529 85.2524 81.7784L78.8714 75.3974L76.8802 70.5778L81.7 72.569L88.081 78.95C88.4555 79.3254 88.6658 79.834 88.6658 80.3642C88.6657 80.8945 88.4554 81.403 88.0809 81.7784Z" fill="white" stroke="white" stroke-width="0.6"/>
</g>
<defs>
<filter id="filter0_d_181_2430" x="0.333374" y="0.0595703" width="150" height="150" filterUnits="userSpaceOnUse" color-interpolation-filters="sRGB">
<feFlood flood-opacity="0" result="BackgroundImageFix"/>
<feColorMatrix in="SourceAlpha" type="matrix" values="0 0 0 0 0 0 0 0 0 0 0 0 0 0 0 0 0 0 127 0" result="hardAlpha"/>
<feOffset dx="4" dy="10"/>
<feGaussianBlur stdDeviation="15"/>
<feComposite in2="hardAlpha" operator="out"/>
<feColorMatrix type="matrix" values="0 0 0 0 0.262745 0 0 0 0 0.380392 0 0 0 0 0.933333 0 0 0 0.4 0"/>
<feBlend mode="normal" in2="BackgroundImageFix" result="effect1_dropShadow_181_2430"/>
<feBlend mode="normal" in="SourceGraphic" in2="effect1_dropShadow_181_2430" result="shape"/>
</filter>
</defs>
</svg>
