<svg width="20" height="20" viewBox="0 0 20 20" fill="none" xmlns="http://www.w3.org/2000/svg">
<g clip-path="url(#clip0_25_37)">
<path d="M19.7625 7.6375L10.3875 0.137499C10.2766 0.0487465 10.1388 0.000389099 9.99683 0.000389099C9.85483 0.000389099 9.71706 0.0487465 9.60621 0.137499L0.231209 7.6375C0.130072 7.71864 0.0566731 7.82922 0.0211827 7.95393C-0.0143077 8.07864 -0.0101328 8.2113 0.0331291 8.33354C0.076391 8.45577 0.156598 8.56152 0.262637 8.63614C0.368677 8.71076 0.495298 8.75055 0.624959 8.75H1.87496V19.375C1.87496 19.5408 1.94081 19.6997 2.05802 19.8169C2.17523 19.9342 2.3342 20 2.49996 20H15V18.75H12.5V13.125C12.5 12.9592 12.4341 12.8003 12.3169 12.6831C12.1997 12.5658 12.0407 12.5 11.875 12.5H8.12496C7.9592 12.5 7.80023 12.5658 7.68302 12.6831C7.56581 12.8003 7.49996 12.9592 7.49996 13.125V18.75H3.12496V8.75H13.75V7.5H2.40621L9.99996 1.425L17.5937 7.5H17.5C17.3342 7.5 17.1752 7.56585 17.058 7.68306C16.9408 7.80027 16.875 7.95924 16.875 8.125V11.875H18.125V8.75H19.375C19.5041 8.74926 19.6298 8.70853 19.7349 8.63343C19.8399 8.55833 19.9191 8.45254 19.9616 8.33059C20.0041 8.20865 20.0077 8.07654 19.9721 7.95243C19.9364 7.82832 19.8632 7.7183 19.7625 7.6375ZM8.74996 13.75H11.25V18.75H8.74996V13.75Z" fill="white"/>
<path d="M15.625 16.6188L14.8187 15.8125L13.9375 16.6937L15.1875 17.9437C15.3046 18.0602 15.463 18.1255 15.6281 18.1255C15.7932 18.1255 15.9516 18.0602 16.0687 17.9437L19.8187 14.1937L18.9375 13.3125L15.625 16.6188Z" fill="white"/>
</g>
<defs>
<clipPath id="clip0_25_37">
<rect width="20" height="20" fill="white"/>
</clipPath>
</defs>
</svg>
