<svg width="51" height="50" viewBox="0 0 51 50" fill="none" xmlns="http://www.w3.org/2000/svg">
<g clip-path="url(#clip0_0_428)">
<circle cx="25.5" cy="25" r="25" fill="#3A0CA3"/>
<path d="M37.2182 22.1645L25.9682 13.1645C25.8352 13.058 25.6698 13 25.4994 13C25.329 13 25.1637 13.058 25.0307 13.1645L13.7807 22.1645C13.6593 22.2619 13.5712 22.3946 13.5286 22.5443C13.4861 22.6939 13.4911 22.8531 13.543 22.9998C13.5949 23.1465 13.6911 23.2734 13.8184 23.3629C13.9456 23.4524 14.0976 23.5002 14.2532 23.4995H15.7532V36.2495C15.7532 36.4484 15.8322 36.6392 15.9728 36.7799C16.1135 36.9205 16.3043 36.9995 16.5032 36.9995H31.5032V35.4995H28.5032V28.7495C28.5032 28.5506 28.4242 28.3599 28.2835 28.2192C28.1429 28.0785 27.9521 27.9995 27.7532 27.9995H23.2532C23.0543 27.9995 22.8635 28.0785 22.7228 28.2192C22.5822 28.3599 22.5032 28.5506 22.5032 28.7495V35.4995H17.2532V23.4995H30.0032V21.9995H16.3907L25.5032 14.7095L34.6157 21.9995H34.5032C34.3043 21.9995 34.1135 22.0785 33.9728 22.2192C33.8322 22.3599 33.7532 22.5506 33.7532 22.7495V27.2495H35.2532V23.4995H36.7532C36.9081 23.4986 37.059 23.4498 37.1851 23.3597C37.3111 23.2695 37.4062 23.1426 37.4571 22.9962C37.5081 22.8499 37.5125 22.6914 37.4697 22.5424C37.4269 22.3935 37.339 22.2615 37.2182 22.1645ZM24.0032 29.4995H27.0032V35.4995H24.0032V29.4995Z" fill="white"/>
<path d="M32.2531 32.942L31.2856 31.9745L30.2281 33.032L31.7281 34.532C31.8687 34.6717 32.0588 34.7501 32.2569 34.7501C32.455 34.7501 32.6451 34.6717 32.7856 34.532L37.2856 30.032L36.2281 28.9745L32.2531 32.942Z" fill="white"/>
</g>
<defs>
<clipPath id="clip0_0_428">
<rect width="50" height="50" fill="white" transform="translate(0.5)"/>
</clipPath>
</defs>
</svg>
