<svg width="24" height="25" viewBox="0 0 24 25" fill="none" xmlns="http://www.w3.org/2000/svg">
<path d="M22.4 13.7596H3.2V4.75964C3.19907 4.4207 3.26538 4.08495 3.39509 3.77182C3.5248 3.45868 3.71533 3.17439 3.95565 2.93538L3.97565 2.91539C4.35228 2.53931 4.83584 2.28868 5.36026 2.19774C5.88468 2.1068 6.42438 2.17998 6.90565 2.40728C6.45114 3.16298 6.26222 4.0489 6.36892 4.92427C6.47562 5.79965 6.87181 6.61425 7.49455 7.23864L8.0421 7.78619L7.03425 8.79409L8.16555 9.92539L9.1734 8.91754L14.7579 3.33318L15.7657 2.32533L14.6344 1.19399L13.6264 2.20184L13.0789 1.65429C12.4233 1.00055 11.5592 0.597564 10.637 0.515552C9.71481 0.433539 8.79309 0.677699 8.03245 1.20549C7.23036 0.698942 6.27983 0.480263 5.33702 0.585373C4.39422 0.690483 3.51519 1.11313 2.84435 1.78389L2.82435 1.80388C2.43497 2.19113 2.12627 2.65177 1.91611 3.15912C1.70595 3.66648 1.59851 4.21048 1.6 4.75964V13.7596H0V15.3596H1.6V16.8946C1.59997 17.0236 1.62077 17.1517 1.6616 17.2741L3.15 21.7391C3.22943 21.9781 3.38216 22.1861 3.5865 22.3334C3.79084 22.4807 4.0364 22.5598 4.2883 22.5596H4.9333L4.35 24.5596H6.01665L6.6 22.5596H17.005L17.605 24.5596H19.275L18.675 22.5596H19.7115C19.9634 22.5599 20.209 22.4807 20.4134 22.3334C20.6178 22.1861 20.7706 21.9782 20.85 21.7391L22.3383 17.2741C22.3791 17.1517 22.4 17.0236 22.4 16.8946V15.3596H24V13.7596H22.4ZM8.626 2.78563C9.0668 2.3458 9.66407 2.09878 10.2868 2.09878C10.9095 2.09878 11.5068 2.3458 11.9476 2.78563L12.495 3.33318L9.17355 6.65463L8.626 6.10718C8.18619 5.66638 7.93918 5.06911 7.93918 4.44641C7.93918 3.82371 8.18619 3.22644 8.626 2.78563ZM20.8 16.8296L19.4234 20.9596H4.5766L3.2 16.8296V15.3596H20.8V16.8296Z" fill="#2B2B2B"/>
</svg>
