<svg width="30" height="23" viewBox="0 0 30 23" fill="none" xmlns="http://www.w3.org/2000/svg">
<path d="M25 5.27978H12V12.8185H10.6154V10.256C10.6138 8.80411 10.0363 7.41217 9.00971 6.38554C7.9831 5.35891 6.59117 4.78142 5.13931 4.77978H2V0.779785H0V22.2798H2V19.2958L28 19.5038V22.2798H30V10.2798C29.9985 8.95416 29.4712 7.68327 28.5339 6.74591C27.5965 5.80856 26.3256 5.28129 25 5.27978ZM2 6.77978H5.13931C6.0609 6.78083 6.94445 7.14739 7.59611 7.79905C8.24777 8.45071 8.61433 9.33426 8.61537 10.2558V12.8183H2V6.77978ZM28 17.5038L2 17.2958V14.8185H28V17.5038ZM28 12.8185H14V7.27978H25C25.7954 7.28069 26.5579 7.59706 27.1203 8.15947C27.6827 8.72188 27.9991 9.48441 28 10.2798V12.8185Z" fill="#2B2B2B"/>
</svg>
