<svg width="86" height="15" viewBox="0 0 86 15" fill="none" xmlns="http://www.w3.org/2000/svg">
<path d="M13.9412 5.65067C13.8743 5.443 13.7512 5.2579 13.5856 5.11587C13.42 4.97383 13.2183 4.88039 13.0028 4.8459L9.62216 4.29649L8.05497 1.25108C7.95515 1.05721 7.80385 0.894576 7.61767 0.781033C7.4315 0.667489 7.21765 0.607422 6.99958 0.607422C6.78151 0.607422 6.56766 0.667489 6.38148 0.781033C6.19531 0.894576 6.04401 1.05721 5.94418 1.25108L4.377 4.29649L0.996381 4.8459C0.781151 4.88093 0.579729 4.97457 0.414215 5.11655C0.248701 5.25852 0.125491 5.44334 0.0581037 5.65073C-0.00928335 5.85812 -0.0182434 6.08006 0.0322066 6.29221C0.0826566 6.50435 0.190567 6.6985 0.344098 6.85336L2.75618 9.28492L2.2341 12.6699C2.2006 12.8855 2.2272 13.1061 2.31099 13.3076C2.39478 13.509 2.53251 13.6835 2.70902 13.8117C2.88554 13.94 3.094 14.017 3.31149 14.0345C3.52897 14.0519 3.74705 14.009 3.94175 13.9106L6.99958 12.3679L10.0575 13.9106C10.2522 14.0088 10.4702 14.0516 10.6876 14.034C10.905 14.0165 11.1134 13.9394 11.2899 13.8112C11.4663 13.683 11.604 13.5087 11.6879 13.3073C11.7717 13.106 11.7985 12.8854 11.7651 12.6699L11.2431 9.28492L13.6551 6.85336C13.8092 6.69881 13.9174 6.50465 13.9679 6.29238C14.0184 6.08012 14.0092 5.85802 13.9412 5.65067Z" fill="#FFC700"/>
<path d="M31.9412 5.65067C31.8743 5.443 31.7512 5.2579 31.5856 5.11587C31.42 4.97383 31.2183 4.88039 31.0028 4.8459L27.6222 4.29649L26.055 1.25108C25.9551 1.05721 25.8038 0.894576 25.6177 0.781033C25.4315 0.667489 25.2176 0.607422 24.9996 0.607422C24.7815 0.607422 24.5677 0.667489 24.3815 0.781033C24.1953 0.894576 24.044 1.05721 23.9442 1.25108L22.377 4.29649L18.9964 4.8459C18.7812 4.88093 18.5797 4.97457 18.4142 5.11655C18.2487 5.25852 18.1255 5.44334 18.0581 5.65073C17.9907 5.85812 17.9818 6.08006 18.0322 6.29221C18.0827 6.50435 18.1906 6.6985 18.3441 6.85336L20.7562 9.28492L20.2341 12.6699C20.2006 12.8855 20.2272 13.1061 20.311 13.3076C20.3948 13.509 20.5325 13.6835 20.709 13.8117C20.8855 13.94 21.094 14.017 21.3115 14.0345C21.529 14.0519 21.7471 14.009 21.9417 13.9106L24.9996 12.3679L28.0575 13.9106C28.2522 14.0088 28.4702 14.0516 28.6876 14.034C28.905 14.0165 29.1134 13.9394 29.2899 13.8112C29.4663 13.683 29.604 13.5087 29.6879 13.3073C29.7717 13.106 29.7985 12.8854 29.7651 12.6699L29.2431 9.28492L31.6551 6.85336C31.8092 6.69881 31.9174 6.50465 31.9679 6.29238C32.0184 6.08012 32.0092 5.85802 31.9412 5.65067Z" fill="#FFC700"/>
<path d="M49.9412 5.65067C49.8743 5.443 49.7512 5.2579 49.5856 5.11587C49.42 4.97383 49.2183 4.88039 49.0028 4.8459L45.6222 4.29649L44.055 1.25108C43.9551 1.05721 43.8038 0.894576 43.6177 0.781033C43.4315 0.667489 43.2176 0.607422 42.9996 0.607422C42.7815 0.607422 42.5677 0.667489 42.3815 0.781033C42.1953 0.894576 42.044 1.05721 41.9442 1.25108L40.377 4.29649L36.9964 4.8459C36.7812 4.88093 36.5797 4.97457 36.4142 5.11655C36.2487 5.25852 36.1255 5.44334 36.0581 5.65073C35.9907 5.85812 35.9818 6.08006 36.0322 6.29221C36.0827 6.50435 36.1906 6.6985 36.3441 6.85336L38.7562 9.28492L38.2341 12.6699C38.2006 12.8855 38.2272 13.1061 38.311 13.3076C38.3948 13.509 38.5325 13.6835 38.709 13.8117C38.8855 13.94 39.094 14.017 39.3115 14.0345C39.529 14.0519 39.7471 14.009 39.9417 13.9106L42.9996 12.3679L46.0575 13.9106C46.2522 14.0088 46.4702 14.0516 46.6876 14.034C46.905 14.0165 47.1134 13.9394 47.2899 13.8112C47.4663 13.683 47.604 13.5087 47.6879 13.3073C47.7717 13.106 47.7985 12.8854 47.7651 12.6699L47.2431 9.28492L49.6551 6.85336C49.8092 6.69881 49.9174 6.50465 49.9679 6.29238C50.0184 6.08012 50.0092 5.85802 49.9412 5.65067Z" fill="#FFC700"/>
<path d="M67.9412 5.65067C67.8743 5.443 67.7512 5.2579 67.5856 5.11587C67.42 4.97383 67.2183 4.88039 67.0028 4.8459L63.6222 4.29649L62.055 1.25108C61.9551 1.05721 61.8038 0.894576 61.6177 0.781033C61.4315 0.667489 61.2176 0.607422 60.9996 0.607422C60.7815 0.607422 60.5677 0.667489 60.3815 0.781033C60.1953 0.894576 60.044 1.05721 59.9442 1.25108L58.377 4.29649L54.9964 4.8459C54.7812 4.88093 54.5797 4.97457 54.4142 5.11655C54.2487 5.25852 54.1255 5.44334 54.0581 5.65073C53.9907 5.85812 53.9818 6.08006 54.0322 6.29221C54.0827 6.50435 54.1906 6.6985 54.3441 6.85336L56.7562 9.28492L56.2341 12.6699C56.2006 12.8855 56.2272 13.1061 56.311 13.3076C56.3948 13.509 56.5325 13.6835 56.709 13.8117C56.8855 13.94 57.094 14.017 57.3115 14.0345C57.529 14.0519 57.7471 14.009 57.9417 13.9106L60.9996 12.3679L64.0575 13.9106C64.2522 14.0088 64.4702 14.0516 64.6876 14.034C64.905 14.0165 65.1134 13.9394 65.2899 13.8112C65.4663 13.683 65.604 13.5087 65.6879 13.3073C65.7717 13.106 65.7985 12.8854 65.7651 12.6699L65.2431 9.28492L67.6551 6.85336C67.8092 6.69881 67.9174 6.50465 67.9679 6.29238C68.0184 6.08012 68.0092 5.85802 67.9412 5.65067Z" fill="#FFC700"/>
<path d="M85.9412 5.65067C85.8743 5.443 85.7512 5.2579 85.5856 5.11587C85.42 4.97383 85.2183 4.88039 85.0028 4.8459L81.6222 4.29649L80.055 1.25108C79.9551 1.05721 79.8038 0.894576 79.6177 0.781033C79.4315 0.667489 79.2176 0.607422 78.9996 0.607422C78.7815 0.607422 78.5677 0.667489 78.3815 0.781033C78.1953 0.894576 78.044 1.05721 77.9442 1.25108L76.377 4.29649L72.9964 4.8459C72.7812 4.88093 72.5797 4.97457 72.4142 5.11655C72.2487 5.25852 72.1255 5.44334 72.0581 5.65073C71.9907 5.85812 71.9818 6.08006 72.0322 6.29221C72.0827 6.50435 72.1906 6.6985 72.3441 6.85336L74.7562 9.28492L74.2341 12.6699C74.2006 12.8855 74.2272 13.1061 74.311 13.3076C74.3948 13.509 74.5325 13.6835 74.709 13.8117C74.8855 13.94 75.094 14.017 75.3115 14.0345C75.529 14.0519 75.7471 14.009 75.9417 13.9106L78.9996 12.3679L82.0575 13.9106C82.2522 14.0088 82.4702 14.0516 82.6876 14.034C82.905 14.0165 83.1134 13.9394 83.2899 13.8112C83.4663 13.683 83.604 13.5087 83.6879 13.3073C83.7717 13.106 83.7985 12.8854 83.7651 12.6699L83.2431 9.28492L85.6551 6.85336C85.8092 6.69881 85.9174 6.50465 85.9679 6.29238C86.0184 6.08012 86.0092 5.85802 85.9412 5.65067Z" fill="#D4D4D4"/>
</svg>
